<svg width="66" height="38" viewBox="0 0 66 38" fill="none" xmlns="http://www.w3.org/2000/svg">
<path fill-rule="evenodd" clip-rule="evenodd" d="M38.4347 26.5528C42.8421 26.5528 46.415 23.0225 46.415 18.6675C46.415 14.3126 42.8421 10.7822 38.4347 10.7822C36.4595 10.7822 34.6518 11.4913 33.2583 12.6659C31.8648 11.4913 30.0572 10.7823 28.0819 10.7823C23.6746 10.7823 20.1017 14.3126 20.1017 18.6676C20.1017 23.0225 23.6746 26.5529 28.0819 26.5529C30.0572 26.5529 31.8648 25.8438 33.2584 24.6691C34.6519 25.8437 36.4595 26.5528 38.4347 26.5528Z" fill="#ED0006"/>
<path fill-rule="evenodd" clip-rule="evenodd" d="M33.2583 24.6691C34.9742 23.2228 36.0622 21.0707 36.0622 18.6675C36.0622 16.2643 34.9742 14.1122 33.2583 12.6659C34.6518 11.4913 36.4594 10.7822 38.4347 10.7822C42.842 10.7822 46.4149 14.3126 46.4149 18.6675C46.4149 23.0225 42.842 26.5528 38.4347 26.5528C36.4594 26.5528 34.6518 25.8437 33.2583 24.6691Z" fill="#F9A000"/>
<path fill-rule="evenodd" clip-rule="evenodd" d="M33.2584 24.6692C34.9742 23.2229 36.0622 21.0708 36.0622 18.6676C36.0622 16.2644 34.9742 14.1123 33.2584 12.666C31.5425 14.1123 30.4545 16.2644 30.4545 18.6676C30.4545 21.0708 31.5425 23.2229 33.2584 24.6692Z" fill="#FF5E00"/>
</svg>
