<svg width="108" height="16" viewBox="0 0 108 16" fill="none" xmlns="http://www.w3.org/2000/svg">
<rect y="0.0387573" width="108" height="15.8276" rx="7.91379" fill="#FE9132"/>
<g clip-path="url(#clip0_5478_3836)">
<path d="M10.0164 8.47397C10.1892 8.6771 10.287 8.92512 10.287 9.18056C10.287 9.30844 10.287 9.6317 10.0238 9.92493C9.89594 10.0754 9.70799 10.1881 9.49001 10.2634C9.38473 10.3008 9.27202 10.3309 9.15157 10.346V10.8799H8.17404V10.3309C8.09137 10.3157 8.0087 10.2934 7.94088 10.2634C7.7455 10.1881 7.58759 10.0754 7.44453 9.9401C6.97853 9.519 7.0386 8.96258 7.0386 8.90251L7.87306 8.90994C7.87306 8.90994 7.87306 9.13535 7.97091 9.27841C8.08362 9.45893 8.31678 9.55646 8.64746 9.55646C9.18128 9.55646 9.42929 9.41372 9.42929 9.18056C9.42929 8.9474 9.12089 8.78948 8.61743 8.72942C8.3016 8.69938 8.03841 8.63157 7.82042 8.54147C7.60987 8.45137 7.44453 8.33834 7.31664 8.1956C7.12869 8.00023 7.0386 7.75964 7.0386 7.49645C7.0386 7.12797 7.18908 6.87996 7.30922 6.72947C7.51234 6.50406 7.79782 6.361 8.17372 6.29351V5.84979H9.15125V6.30093C9.63985 6.40621 9.91822 6.67683 10.0684 6.90999C10.2715 7.22582 10.2864 7.60172 10.2864 7.66179H9.4519C9.4519 7.62433 9.44447 7.46641 9.3618 7.35338C9.24134 7.18804 9.00076 7.08276 8.66264 7.08276C8.32453 7.08276 7.90342 7.17286 7.90342 7.44381C7.90342 7.69957 8.16661 7.84231 8.70785 7.90238C9.30948 7.97019 9.74545 8.16557 10.0161 8.47365L10.0164 8.47397Z" fill="white"/>
<path d="M8.66196 13.1088C6.04618 13.1088 3.91803 10.9807 3.91803 8.36489C3.91803 5.7491 6.04618 3.62128 8.66196 3.62128C11.2777 3.62128 13.4056 5.74943 13.4056 8.36489C13.4056 10.9804 11.2774 13.1085 8.66196 13.1085V13.1088ZM8.66196 4.34659C6.4463 4.34659 4.64367 6.14922 4.64367 8.36489C4.64367 10.5806 6.4463 12.3832 8.66196 12.3832C10.8776 12.3832 12.6803 10.5806 12.6803 8.36489C12.6803 6.14922 10.8776 4.34659 8.66196 4.34659Z" fill="white"/>
</g>
<path d="M21.1627 7.18748C21.1627 7.97045 20.635 9.06886 19.1706 9.06886H17.8593V10.8313H16.5312V5.29742H19.1874C20.5497 5.29742 21.1627 6.33611 21.1627 7.18748ZM19.9709 7.18748C19.9709 7.0512 19.9199 6.85571 19.7923 6.71076C19.656 6.55763 19.4605 6.48924 19.1879 6.48924H17.8599V7.87705H19.1711C19.3497 7.87705 19.4947 7.85153 19.6136 7.80048C19.6902 7.75812 19.7499 7.71525 19.8096 7.65553C19.9291 7.51057 19.9714 7.31508 19.9714 7.18748H19.9709Z" fill="white"/>
<path d="M24.8326 8.94126L26.0244 10.8313H24.5345L23.3769 9.06886H22.747V10.8313H21.4189V5.29742H24.0665C25.4287 5.29742 26.0417 6.33611 26.0417 7.18748C26.0417 7.80916 25.71 8.6345 24.8331 8.94126H24.8326ZM22.7465 7.87705H24.0578C24.2283 7.87705 24.3814 7.85153 24.4921 7.80048C24.5687 7.75812 24.6371 7.71525 24.6881 7.65553C24.8071 7.51057 24.8499 7.31508 24.8499 7.18748C24.8499 7.0512 24.8076 6.85571 24.6713 6.71076C24.5437 6.55763 24.3477 6.48924 24.067 6.48924H22.7475V7.87705H22.7465Z" fill="white"/>
<path d="M27.7527 5.29742V10.8313H26.4246V5.29742H27.7527Z" fill="white"/>
<path d="M32.8267 10.1586C32.3244 10.5756 31.6859 10.8313 30.9795 10.8313C29.413 10.8313 28.136 9.55426 28.136 7.9878C28.136 6.42135 29.4125 5.13562 30.979 5.13562C31.6854 5.13562 32.3239 5.39083 32.8262 5.81651L31.9748 6.6592C31.6941 6.44636 31.3449 6.32743 30.9785 6.32743C30.5359 6.32743 30.1271 6.49791 29.8122 6.81283C29.4973 7.12776 29.3268 7.54476 29.3268 7.9878C29.3268 8.43084 29.4973 8.83917 29.8122 9.15409C30.1271 9.46902 30.5359 9.63949 30.9785 9.63949C31.3444 9.63949 31.6936 9.52057 31.9748 9.30773L32.8262 10.1591L32.8267 10.1586Z" fill="white"/>
<path d="M34.5723 9.63899H37.109V10.8308H33.2442V5.29742H37.109V6.48924H34.5723V7.46821H36.7262V8.66002H34.5723V9.63899Z" fill="white"/>
<path d="M45.98 5.29742V10.8313H44.6519V7.7326L43.0089 8.77997L41.417 7.74128V10.8318H40.0889V5.29742L43.0258 7.19565L45.98 5.29742Z" fill="white"/>
<path d="M50.3389 10.0565H48.2533L47.8532 10.8313H46.3209L49.3002 5.29742L52.2713 10.8313H50.739L50.3389 10.0565ZM49.8024 9.01782L49.3002 8.04752L48.7893 9.01782H49.8024Z" fill="white"/>
<path d="M54.1787 6.62552V10.8313H52.8507V6.62552H51.4118V5.29742H55.6176V6.62552H54.1787Z" fill="white"/>
<path d="M60.5466 10.1586C60.0444 10.5756 59.4059 10.8313 58.6995 10.8313C57.133 10.8313 55.856 9.55426 55.856 7.9878C55.856 6.42135 57.133 5.13562 58.6995 5.13562C59.4059 5.13562 60.0444 5.39083 60.5466 5.81651L59.6953 6.6592C59.4145 6.44636 59.0654 6.32743 58.6995 6.32743C58.2569 6.32743 57.8481 6.49791 57.5332 6.81283C57.2182 7.12776 57.0478 7.54476 57.0478 7.9878C57.0478 8.43084 57.2182 8.83917 57.5332 9.15409C57.8481 9.46902 58.2569 9.63949 58.6995 9.63949C59.0654 9.63949 59.4145 9.52057 59.6953 9.30773L60.5466 10.1591V10.1586Z" fill="white"/>
<path d="M65.3399 5.29742V10.8313H64.0118V8.66053H62.3433V10.8313H61.0152V5.29742H62.3433V7.46821H64.0118V5.29742H65.3399Z" fill="white"/>
<path d="M73.3463 7.19836C73.3463 7.99065 72.8123 9.10155 71.331 9.10155H70.0047V10.8844H68.6611V5.28632H71.348C72.7261 5.28632 73.3463 6.3369 73.3463 7.19836ZM72.1403 7.19836C72.1403 7.06069 72.0885 6.86236 71.9594 6.71618C71.8217 6.56113 71.6234 6.49229 71.348 6.49229H70.0044V7.89625H71.3306C71.5116 7.89625 71.6578 7.87035 71.7784 7.8189C71.8558 7.77596 71.9161 7.73268 71.9764 7.67237C72.097 7.52584 72.14 7.32785 72.14 7.1987L72.1403 7.19836Z" fill="white"/>
<path d="M77.0736 8.9724L78.2792 10.8844H76.772L75.6008 9.10155H74.9636V10.8844H73.6199V5.28632H76.2984C77.6764 5.28632 78.2966 6.3369 78.2966 7.19836C78.2966 7.82708 77.9606 8.66264 77.0736 8.9724ZM74.9636 7.89591H76.2898C76.4619 7.89591 76.617 7.87001 76.7291 7.81856C76.8064 7.77562 76.8756 7.73234 76.9271 7.67203C77.0477 7.5255 77.0906 7.32751 77.0906 7.19836C77.0906 7.06069 77.0477 6.86236 76.9097 6.71618C76.7805 6.56113 76.5826 6.49229 76.2984 6.49229H74.9636V7.89625V7.89591Z" fill="white"/>
<path d="M84.1786 7.99972C84.1786 9.59314 82.8868 10.885 81.2934 10.885C79.6999 10.885 78.4081 9.59314 78.4081 7.99972C78.4081 6.40629 79.6999 5.11444 81.2934 5.11444C82.8868 5.11444 84.1786 6.40629 84.1786 7.99972ZM82.9727 7.99972C82.9727 7.55195 82.8006 7.12974 82.4816 6.81112C82.163 6.4925 81.7408 6.32008 81.293 6.32008C80.8452 6.32008 80.423 6.49216 80.1044 6.81112C79.7858 7.12974 79.6134 7.55195 79.6134 7.99972C79.6134 8.44748 79.7855 8.8697 80.1044 9.18831C80.423 9.49841 80.8452 9.67936 81.293 9.67936C81.7408 9.67936 82.163 9.49841 82.4816 9.18831C82.8002 8.8697 82.9727 8.44748 82.9727 7.99972Z" fill="white"/>
<path d="M90.3874 5.28632V10.8844H89.0437V7.74938L87.3815 8.80883L85.771 7.75824V10.8844H84.4274V5.28632L87.3989 7.20688L90.3874 5.28632Z" fill="white"/>
<path d="M92.1184 5.28632V10.8844H90.7748V5.28632H92.1184Z" fill="white"/>
<path d="M93.6853 10.7209C93.4096 10.6092 93.1858 10.4453 92.9793 10.2646C92.3246 9.66183 92.4109 8.86069 92.4109 8.78333L93.5909 8.80071V8.79219C93.5909 8.79219 93.5909 9.11081 93.7286 9.31765C93.9007 9.57596 94.2196 9.70511 94.6844 9.70511C95.4597 9.70511 95.8042 9.50712 95.8042 9.17964C95.8042 8.83513 95.365 8.61976 94.65 8.54241C94.2108 8.49061 93.8233 8.39588 93.5132 8.26673C93.2205 8.1461 92.9793 7.98253 92.7983 7.78454C92.54 7.50034 92.4109 7.16435 92.4109 6.78541C92.4109 6.25995 92.6177 5.90691 92.7983 5.70041C93.1946 5.25264 93.8319 5.0199 94.7103 5.0199C95.8645 5.0199 96.4329 5.52798 96.7086 5.95019C97.0013 6.40682 97.0187 6.93194 97.0187 7.01816H95.8386V7.02668C95.8386 7.02668 95.8472 6.76837 95.7095 6.58743C95.5374 6.34616 95.1929 6.19997 94.7103 6.19997C94.2278 6.19997 93.6339 6.32913 93.6339 6.70806C93.6339 7.08699 94.0128 7.28498 94.7792 7.37119C95.6318 7.46592 96.2605 7.73309 96.6394 8.17199C96.8892 8.46471 97.0184 8.80923 97.0184 9.17964C97.0184 9.36059 97.0184 9.81688 96.648 10.2302C96.4585 10.4456 96.2002 10.6092 95.8816 10.7213C95.5544 10.8334 95.1581 10.8848 94.6844 10.8848C94.314 10.8848 93.9784 10.833 93.6853 10.7213V10.7209Z" fill="white"/>
<path d="M98.6807 9.67881H101.247V10.8844H97.3374V5.28632H101.247V6.49195H98.6807V7.48222H100.86V8.68785H98.6807V9.67812V9.67881Z" fill="white"/>
<defs>
<clipPath id="clip0_5478_3836">
<rect width="10.0141" height="10.0141" fill="white" transform="translate(3.72412 2.9455)"/>
</clipPath>
</defs>
</svg>
