<svg width="67" height="38" viewBox="0 0 67 38" fill="none" xmlns="http://www.w3.org/2000/svg">
<path fill-rule="evenodd" clip-rule="evenodd" d="M35.4889 13.8377L33.1845 14.3468V12.4235L35.4889 11.9238V13.8377ZM40.2812 14.9032C39.3815 14.9032 38.8031 15.3369 38.4817 15.6385L38.3624 15.054H36.3426V26.0469L38.6378 25.5473L38.647 22.8792C38.9775 23.1243 39.4641 23.4731 40.272 23.4731C41.9154 23.4731 43.4119 22.1155 43.4119 19.1269C43.4027 16.3928 41.8879 14.9032 40.2812 14.9032ZM39.7302 21.3989C39.1885 21.3989 38.8672 21.201 38.6469 20.9558L38.6377 17.4581C38.8764 17.1847 39.2069 16.9961 39.7302 16.9961C40.5657 16.9961 41.1441 17.9578 41.1441 19.1928C41.1441 20.4562 40.5749 21.3989 39.7302 21.3989ZM50.6465 19.2211C50.6465 16.8076 49.5081 14.9032 47.3322 14.9032C45.1471 14.9032 43.8251 16.8076 43.8251 19.2023C43.8251 22.0401 45.3858 23.4731 47.626 23.4731C48.7185 23.4731 49.5448 23.2186 50.1691 22.8603V20.9747C49.5448 21.2953 48.8287 21.4933 47.9198 21.4933C47.0292 21.4933 46.2397 21.1727 46.1387 20.0602H50.6282C50.6282 20.0083 50.6315 19.8902 50.6353 19.7542C50.6404 19.5694 50.6465 19.3515 50.6465 19.2211ZM46.1111 18.3256C46.1111 17.2602 46.7446 16.8171 47.323 16.8171C47.883 16.8171 48.4798 17.2602 48.4798 18.3256H46.1111ZM33.1843 15.0635H35.4887V23.3129H33.1843V15.0635ZM30.568 15.0633L30.7149 15.7609C31.2566 14.7427 32.3308 14.9501 32.6245 15.0633V17.2317C32.3399 17.128 31.4218 16.996 30.8802 17.7219V23.3127H28.5849V15.0633H30.568ZM26.1242 13.0174L23.884 13.5077L23.8748 21.0594C23.8748 22.4547 24.8939 23.4824 26.2527 23.4824C27.0055 23.4824 27.5564 23.3409 27.8594 23.1712V21.2574C27.5656 21.3799 26.115 21.8136 26.115 20.4183V17.0714H27.8594V15.0633H26.115L26.1242 13.0174ZM20.6984 16.949C20.2118 16.949 19.918 17.0904 19.918 17.4581C19.918 17.8596 20.4237 18.0362 21.0509 18.2553C22.0736 18.6124 23.4195 19.0825 23.4252 20.8239C23.4252 22.5115 22.1123 23.4825 20.2027 23.4825C19.4131 23.4825 18.5501 23.3223 17.6963 22.9452V20.7013C18.4675 21.135 19.4406 21.4556 20.2027 21.4556C20.7168 21.4556 21.084 21.3141 21.084 20.8804C21.084 20.4358 20.5359 20.2325 19.8742 19.9871C18.8665 19.6134 17.5953 19.142 17.5953 17.5713C17.5953 15.9025 18.8347 14.9032 20.6984 14.9032C21.4605 14.9032 22.2133 15.0257 22.9753 15.3369V17.5524C22.2776 17.1659 21.3962 16.949 20.6984 16.949Z" fill="#6461FC"/>
</svg>
