<svg width="67" height="38" viewBox="0 0 67 38" fill="none" xmlns="http://www.w3.org/2000/svg">
<path fill-rule="evenodd" clip-rule="evenodd" d="M32.3836 23.3715V19.6739H34.292C35.074 19.6739 35.7341 19.4119 36.2722 18.8951L36.4013 18.7641C37.3842 17.6941 37.3196 16.0272 36.2722 15.0373C35.7484 14.5133 35.031 14.2294 34.292 14.2439H31.2285V23.3715H32.3836ZM32.3838 18.5529V15.3648H34.3212C34.7374 15.3648 35.132 15.525 35.4262 15.8161C36.0505 16.4275 36.0648 17.4466 35.4621 18.0798C35.1679 18.3928 34.7517 18.5675 34.3212 18.5529H32.3838ZM41.7894 17.614C41.2944 17.1554 40.62 16.9225 39.7662 16.9225C38.6685 16.9225 37.8435 17.3301 37.2982 18.138L38.317 18.7858C38.6901 18.2327 39.1995 17.9561 39.8452 17.9561C40.2541 17.9561 40.6487 18.1089 40.9572 18.3855C41.2585 18.6475 41.4307 19.026 41.4307 19.4264V19.6957C40.9859 19.4482 40.4263 19.3172 39.7375 19.3172C38.934 19.3172 38.2883 19.5064 37.8076 19.8922C37.3269 20.278 37.083 20.7875 37.083 21.4353C37.0686 22.0249 37.3197 22.5854 37.7646 22.9639C38.2166 23.3715 38.7905 23.5753 39.4649 23.5753C40.2613 23.5753 40.8926 23.2186 41.3733 22.5053H41.4235V23.3715H42.5284V19.521C42.5284 18.7131 42.2845 18.0725 41.7894 17.614ZM38.6543 22.2216C38.4176 22.0469 38.274 21.7631 38.274 21.4574C38.274 21.1153 38.4319 20.8314 38.7405 20.6058C39.0562 20.3801 39.4508 20.2636 39.9173 20.2636C40.5631 20.2564 41.0653 20.4019 41.4241 20.6931C41.4241 21.1881 41.2304 21.6175 40.8501 21.9814C40.5057 22.3308 40.0392 22.5273 39.5513 22.5273C39.2284 22.5346 38.9127 22.4254 38.6543 22.2216ZM45.0107 26.1155L48.8705 17.1262H47.615L45.8286 21.6099H45.807L43.9776 17.1262H42.722L45.2546 22.971L43.8197 26.1155H45.0107Z" fill="#3C4043"/>
<path d="M28.396 18.8732C28.396 18.5166 28.3673 18.1599 28.3099 17.8105H23.4384V19.8268H26.2293C26.1145 20.4746 25.7414 21.0569 25.1962 21.4208V22.731H26.8606C27.8364 21.8211 28.396 20.4746 28.396 18.8732Z" fill="#4285F4"/>
<path d="M23.4386 23.9975C24.8305 23.9975 26.0071 23.5316 26.8608 22.731L25.1964 21.4208C24.73 21.7411 24.1345 21.923 23.4386 21.923C22.0898 21.923 20.9491 20.9986 20.5401 19.7612H18.8254V21.1151C19.7007 22.8838 21.4872 23.9975 23.4386 23.9975Z" fill="#34A853"/>
<path d="M20.5403 19.7613C20.325 19.1135 20.325 18.4074 20.5403 17.7523V16.4058H18.8253C18.0862 17.8834 18.0862 19.6303 18.8253 21.1078L20.5403 19.7613Z" fill="#FBBC04"/>
<path d="M23.4386 15.5906C24.1776 15.5761 24.8879 15.8599 25.4188 16.3767L26.8967 14.8773C25.9569 13.9893 24.7228 13.5016 23.4386 13.5162C21.4872 13.5162 19.7007 14.6371 18.8254 16.4059L20.5401 17.7597C20.9491 16.515 22.0898 15.5906 23.4386 15.5906Z" fill="#EA4335"/>
</svg>
