<svg width="19" height="19" viewBox="0 0 19 19" fill="none" xmlns="http://www.w3.org/2000/svg">
<g clip-path="url(#clip0_5478_3826)">
<path d="M1.625 5.49023H3.68573L4.303 8.23987L5.63521 14.1728H15.2469L16.8343 8.79615" stroke="#1F1F1F" stroke-width="1.5" stroke-linecap="round" stroke-linejoin="round"/>
<path d="M7.44436 17.4241C8.00644 17.4241 8.46209 16.9685 8.46209 16.4064C8.46209 15.8443 8.00644 15.3887 7.44436 15.3887C6.88229 15.3887 6.42664 15.8443 6.42664 16.4064C6.42664 16.9685 6.88229 17.4241 7.44436 17.4241Z" fill="#1F1F1F"/>
<path d="M13.8427 17.4241C14.4048 17.4241 14.8604 16.9685 14.8604 16.4064C14.8604 15.8443 14.4048 15.3887 13.8427 15.3887C13.2806 15.3887 12.825 15.8443 12.825 16.4064C12.825 16.9685 13.2806 17.4241 13.8427 17.4241Z" fill="#1F1F1F"/>
<path d="M10.662 3.92383V9.89638" stroke="#1F1F1F" stroke-width="1.5" stroke-linecap="round"/>
<path d="M13.6483 6.91016H7.67542" stroke="#1F1F1F" stroke-width="1.5" stroke-linecap="round"/>
</g>
<defs>
<clipPath id="clip0_5478_3826">
<rect width="18" height="18" fill="white" transform="translate(0.5 0.923828)"/>
</clipPath>
</defs>
</svg>
