<svg width="67" height="38" viewBox="0 0 67 38" fill="none" xmlns="http://www.w3.org/2000/svg">
<path fill-rule="evenodd" clip-rule="evenodd" d="M23.4059 14.1734C23.0325 14.6338 22.4351 14.9969 21.8377 14.945C21.763 14.3225 22.0555 13.6611 22.3978 13.2525C22.7712 12.7792 23.4246 12.442 23.9535 12.416C24.0158 13.0645 23.7731 13.7 23.4059 14.1734ZM23.9473 15.0683C23.421 15.0367 22.9408 15.2332 22.5529 15.392C22.3032 15.4941 22.0919 15.5806 21.931 15.5806C21.7506 15.5806 21.5305 15.4895 21.2833 15.3872C20.9595 15.2531 20.5893 15.0998 20.201 15.1072C19.3111 15.1202 18.4834 15.6454 18.0292 16.482C17.0957 18.155 17.7865 20.6322 18.6888 21.9939C19.1306 22.6683 19.6596 23.4076 20.3566 23.3817C20.6632 23.3696 20.8838 23.2721 21.1121 23.1711C21.3749 23.0549 21.6479 22.9342 22.0742 22.9342C22.4857 22.9342 22.7467 23.0518 22.9974 23.1646C23.2356 23.272 23.4645 23.375 23.8042 23.3687C24.5261 23.3557 24.9804 22.6943 25.4222 22.0199C25.899 21.2961 26.1085 20.5897 26.1403 20.4825L26.1403 20.4824L26.1404 20.4824L26.1441 20.47C26.1433 20.4692 26.1374 20.4664 26.127 20.4615C25.9676 20.3854 24.7493 19.8042 24.7377 18.2458C24.7259 16.9377 25.704 16.2749 25.8579 16.1706L25.8579 16.1706C25.8673 16.1642 25.8736 16.16 25.8765 16.1577C25.2542 15.198 24.2834 15.0942 23.9473 15.0683ZM28.9445 23.2974V13.1878H32.585C34.4644 13.1878 35.7775 14.5366 35.7775 16.5079C35.7775 18.4793 34.4395 19.8411 32.5352 19.8411H30.4505V23.2974H28.9445ZM30.4505 14.5104H32.1867C33.4935 14.5104 34.2403 15.2367 34.2403 16.5141C34.2403 17.7916 33.4935 18.5244 32.1805 18.5244H30.4505V14.5104ZM40.7498 22.0845C40.3515 22.8757 39.4741 23.375 38.5282 23.375C37.128 23.375 36.1509 22.506 36.1509 21.1961C36.1509 19.8992 37.0968 19.1535 38.8455 19.0432L40.7249 18.9265V18.3688C40.7249 17.5453 40.2084 17.0978 39.2874 17.0978C38.5282 17.0978 37.9743 17.5063 37.8623 18.1289H36.5056C36.5492 16.819 37.7316 15.8657 39.3309 15.8657C41.0547 15.8657 42.1749 16.806 42.1749 18.265V23.2972H40.7809V22.0845H40.7498ZM38.9326 22.1756C38.1298 22.1756 37.6195 21.7735 37.6195 21.1575C37.6195 20.522 38.1111 20.1524 39.0508 20.094L40.7248 19.9838V20.5544C40.7248 21.5012 39.9532 22.1756 38.9326 22.1756ZM46.7987 23.6929C46.195 25.4632 45.5043 26.0468 44.0356 26.0468C43.9236 26.0468 43.5502 26.0338 43.4631 26.0079V24.7953C43.5564 24.8082 43.7867 24.8212 43.9049 24.8212C44.5708 24.8212 44.9442 24.5294 45.1744 23.7707L45.3114 23.3232L42.7599 15.9631H44.3343L46.1079 21.9355H46.139L47.9126 15.9631H49.4435L46.7987 23.6929Z" fill="black"/>
</svg>
