<svg width="67" height="38" viewBox="0 0 67 38" fill="none" xmlns="http://www.w3.org/2000/svg">
<path fill-rule="evenodd" clip-rule="evenodd" d="M30.2897 26.5743L30.5495 24.8689L29.9708 24.8549H27.2075L29.1279 12.2695C29.1339 12.2314 29.1532 12.196 29.1814 12.1708C29.2098 12.1456 29.246 12.1318 29.2838 12.1318H33.9432C35.4902 12.1318 36.5576 12.4645 37.1149 13.1211C37.3762 13.4292 37.5426 13.7512 37.6232 14.1054C37.7076 14.4771 37.709 14.9212 37.6267 15.463L37.6207 15.5024V15.8495L37.882 16.0025C38.102 16.1232 38.2769 16.2613 38.411 16.4193C38.6344 16.6828 38.779 17.0176 38.8401 17.4143C38.9033 17.8225 38.8824 18.3083 38.779 18.8582C38.6598 19.4907 38.4671 20.0417 38.2067 20.4924C37.9674 20.9077 37.6624 21.2523 37.3002 21.5192C36.9545 21.7729 36.5437 21.9654 36.0793 22.0887C35.6292 22.2098 35.116 22.2709 34.5532 22.2709H34.1906C33.9314 22.2709 33.6795 22.3674 33.4818 22.5404C33.2836 22.717 33.1525 22.9583 33.1123 23.2222L33.0849 23.3758L32.6258 26.3819L32.6051 26.4922C32.5995 26.5271 32.5901 26.5445 32.5762 26.5563C32.5638 26.5671 32.546 26.5743 32.5286 26.5743H30.2897" fill="#28356A"/>
<path fill-rule="evenodd" clip-rule="evenodd" d="M38.1296 15.5425C38.1158 15.6344 38.0998 15.7283 38.082 15.8248C37.4676 19.0856 35.3653 20.2121 32.6805 20.2121H31.3135C30.9851 20.2121 30.7083 20.4584 30.6573 20.7932L29.7591 26.6816C29.7259 26.9015 29.8898 27.0995 30.1043 27.0995H32.529C32.816 27.0995 33.0599 26.8839 33.1052 26.5913L33.1289 26.464L33.5855 23.4697L33.6148 23.3055C33.6595 23.0118 33.904 22.7961 34.191 22.7961H34.5536C36.9027 22.7961 38.7417 21.8104 39.2792 18.9577C39.5036 17.7661 39.3874 16.7711 38.7933 16.0713C38.6136 15.8603 38.3905 15.6851 38.1296 15.5425" fill="#298FC2"/>
<path fill-rule="evenodd" clip-rule="evenodd" d="M37.4866 15.2775C37.3926 15.2492 37.2958 15.2236 37.1965 15.2004C37.0965 15.1778 36.9943 15.1579 36.889 15.1403C36.5204 15.0788 36.1165 15.0496 35.6839 15.0496H32.0319C31.9418 15.0496 31.8564 15.0706 31.78 15.1085C31.6115 15.1922 31.4864 15.357 31.4561 15.5588L30.6792 20.6449L30.6569 20.7931C30.708 20.4583 30.9847 20.212 31.3131 20.212H32.6801C35.365 20.212 37.4672 19.0849 38.0817 15.8247C38.1 15.7282 38.1155 15.6343 38.1292 15.5424C37.9738 15.4571 37.8055 15.3842 37.6242 15.3221C37.5794 15.3067 37.5332 15.2919 37.4866 15.2775" fill="#22284F"/>
<path fill-rule="evenodd" clip-rule="evenodd" d="M31.4563 15.5588C31.4867 15.357 31.6117 15.1922 31.7802 15.1091C31.8572 15.071 31.9421 15.05 32.0321 15.05H35.6841C36.1167 15.05 36.5206 15.0793 36.8892 15.1409C36.9945 15.1583 37.0968 15.1784 37.1967 15.201C37.296 15.224 37.3928 15.2497 37.4868 15.2779C37.5334 15.2923 37.5796 15.3072 37.6248 15.3221C37.8061 15.3842 37.9746 15.4577 38.13 15.5424C38.3128 14.3374 38.1285 13.5169 37.4982 12.774C36.8032 11.956 35.549 11.606 33.944 11.606H29.2845C28.9567 11.606 28.677 11.8523 28.6264 12.1877L26.6856 24.9025C26.6474 25.1541 26.8351 25.381 27.0805 25.381H29.9571L31.4563 15.5588" fill="#28356A"/>
</svg>
